<?xml version="1.0" encoding="UTF-8"?>
<svg xmlns="http://www.w3.org/2000/svg" viewBox="0 0 110 104" preserveAspectRatio="xMidYMid meet">
  <path fill="#31baeb" fill-rule="evenodd" d="M14.7 9.2l80.9 42.5c.1 0 .2.2.2.3s0 .3-.2.3l-15.2 8s-.2 0-.3 0L27.2 32.2s-.2 0-.3 0c-.1 0-.2.2-.2.3v10c0 .1 0 .3.2.3l42.5 22.6c.1 0 .2.2.2.3s0 .3-.2.3L14.5 98.8s-.2 0-.3 0c-.1 0-.2-.2-.2-.3V68.8c0-.1 0-.2.2-.3.1 0 .2 0 .3 0l15.7 8.4s.2 0 .3 0l9.4-5c.1 0 .2-.2.2-.3s0-.3-.2-.3L14.7 57.8c-.1 0-.2-.2-.2-.3V9.5c0-.1 0-.3.2-.3.1 0 .2 0 .3 0"/>
</svg>
