<?xml version="1.0" encoding="UTF-8"?>
<svg id="Layer_1" xmlns="http://www.w3.org/2000/svg" version="1.1" viewBox="0 0 110 104">
  <!-- Generator: Adobe Illustrator 29.1.0, SVG Export Plug-In . SVG Version: 2.1.0 Build 142)  -->
  <defs>
    <style>
      .st0 {
        fill: #31baeb;
        fill-rule: evenodd;
      }
    </style>
  </defs>
  <g id="Layer_1-2">
    <path class="st0" d="M14.7,9.2l80.9,42.5c.1,0,.2.2.2.3s0,.3-.2.3l-15.2,8s-.2,0-.3,0l-52.9-28.1s-.2,0-.3,0c-.1,0-.2.2-.2.3v10c0,.1,0,.3.2.3l42.5,22.6c.1,0,.2.2.2.3s0,.3-.2.3l-54.7,28.8s-.2,0-.3,0c-.1,0-.2-.2-.2-.3v-29.7c0-.1,0-.2.2-.3.1,0,.2,0,.3,0l15.7,8.4s.2,0,.3,0l9.4-5c.1,0,.2-.2.2-.3s0-.3-.2-.3l-25.8-13.8c-.1,0-.2-.2-.2-.3V9.5c0-.1,0-.3.2-.3.1,0,.2,0,.3,0"/>
  </g>
</svg>