<svg width="135" height="135" viewBox="0 0 135 135" fill="none" xmlns="http://www.w3.org/2000/svg">
<path d="M125.843 60.3787C125.843 61.8987 125.133 62.708 123.715 62.708H116.924V57.9453C116.924 54.4 116.416 52.5746 113.376 52.5746H110.335C107.295 52.5746 106.788 54.4 106.788 57.9453V62.708H102.024C98.4759 62.708 96.6519 63.216 96.6519 66.256V69.5C96.6519 72.54 98.4759 73.048 102.024 73.048H106.788V77.812C106.788 81.3587 107.295 83.184 110.335 83.184H113.376C116.416 83.184 116.924 81.3587 116.924 77.812V73.048H123.715C125.032 73.048 125.741 73.7573 125.843 75.0746V90.48C125.843 94.2307 124.728 97.0693 122.093 99.6013L99.4906 122.204C96.8546 124.84 93.916 126.057 90.2666 126.057H45.0613C41.4133 126.057 38.4746 124.84 35.8386 122.204L13.236 99.6013C10.6 96.9667 9.38528 94.2307 9.48528 90.48V45.7827C9.48528 42.032 10.7026 38.7894 13.4386 36.0534L36.4453 12.7413C38.7773 10.4106 41.7173 9.69997 45.0613 9.69997H90.2666C93.612 9.69997 96.552 10.4106 98.8826 12.7413L121.889 36.0534C124.525 38.7894 125.843 42.032 125.843 45.7827V60.3787ZM105.064 6.8613C101.111 3.01064 96.1453 0.982658 90.1653 0.982658H45.164C39.1826 0.982658 34.1146 3.01064 30.264 6.8613L6.44397 30.58C2.69464 34.3293 0.666626 39.296 0.666626 44.7693V90.48C0.666626 96.764 2.79595 101.631 7.05461 105.785L29.6559 128.388C34.1146 132.847 39.0813 134.875 45.4666 134.775H89.8613C96.0439 134.775 101.111 132.949 105.672 128.388L128.276 105.785C132.432 101.631 134.661 96.664 134.661 90.48V44.7693C134.661 39.296 132.633 34.3293 128.884 30.58L105.064 6.8613Z" fill="white"/>
<path d="M67.5587 90.2773C60.3627 90.2773 58.2347 88.2507 58.2347 82.2707V72.64C60.7694 72.0334 63.5054 71.4254 66.444 71.4254C74.2494 71.4254 75.972 73.4533 75.972 80.548C75.972 87.0333 75.06 90.2773 67.5587 90.2773ZM67.7627 62.304C65.228 62.304 62.6947 62.5067 60.0587 63.0147C59.0453 63.216 58.2347 62.8107 58.2347 61.5934V59.568C58.2347 50.0387 58.944 46.5947 66.9507 46.5947C73.8427 46.5947 75.364 46.9987 75.364 51.9667C75.364 53.992 76.7827 54.6014 79.1147 54.6014H81.5467C84.3854 54.6014 85.5 53.892 85.5 51.1534C85.5 39.1947 80.332 36.1534 68.472 36.1534C49.924 36.1534 47.7947 43.6547 47.7947 67.372C47.896 90.2773 46.5787 100.415 67.3573 100.415C80.5347 100.415 86.412 96.056 86.412 79.332C86.412 65.5467 80.0267 62.304 67.7627 62.304Z" fill="white"/>
</svg>
