<svg width="135" height="135" viewBox="0 0 135 135" fill="none" xmlns="http://www.w3.org/2000/svg">
<path d="M41.4546 37.2708H32.2306C28.6853 37.2708 26.86 37.8788 26.86 40.8175V44.1614C26.86 47.1014 28.6853 47.7081 32.2306 47.7081H34.36C35.6773 47.7081 36.2839 48.4188 36.2839 50.4455V94.2321C36.2839 97.7801 36.8933 99.6041 39.8333 99.6041H43.2773C46.2186 99.6041 46.828 97.7801 46.828 94.2321V40.8175C46.828 37.8788 45.0013 37.2708 41.4546 37.2708Z" fill="white"/>
<path d="M125.464 60.3788C125.464 61.9002 124.753 62.7095 123.335 62.7095H116.545V57.9468C116.545 54.4001 116.037 52.5762 112.997 52.5762H109.955C106.916 52.5762 106.408 54.4001 106.408 57.9468V62.7095H101.645C98.0986 62.7095 96.2732 63.2175 96.2732 66.2575V69.5015C96.2732 72.5415 98.0986 73.0495 101.645 73.0495H106.408V77.8122C106.408 81.3602 106.916 83.1841 109.955 83.1841H112.997C116.037 83.1841 116.545 81.3602 116.545 77.8122V73.0495H123.335C124.653 73.0495 125.363 73.7588 125.464 75.0762V90.4815C125.464 94.2321 124.348 97.0695 121.713 99.6042L99.1106 122.205C96.4746 124.841 93.5359 126.059 89.8893 126.059H44.6813C41.0333 126.059 38.0946 124.841 35.4586 122.205L12.8573 99.6042C10.2226 96.9695 9.00258 94.2321 9.10658 90.4815V45.7842C9.10658 42.0335 10.324 38.7895 13.06 36.0535L36.0666 12.7415C38.3986 10.4121 41.3373 9.70013 44.6813 9.70013H89.8893C93.2319 9.70013 96.1706 10.4121 98.5026 12.7415L121.511 36.0535C124.145 38.7895 125.464 42.0335 125.464 45.7842V60.3788ZM104.684 6.86283C100.732 3.01216 95.7666 0.98418 89.7853 0.98418H44.7826C38.8026 0.98418 33.7346 3.01216 29.8853 6.86283L6.06394 30.5815C2.31594 34.3308 0.287964 39.2975 0.287964 44.7708V90.4815C0.287964 96.7655 2.41725 101.632 6.67325 105.788L29.2773 128.389C33.7346 132.849 38.7013 134.876 45.088 134.775H89.4826C95.6653 134.775 100.732 132.949 105.293 128.389L127.896 105.788C132.052 101.632 134.281 96.6641 134.281 90.4815V44.7708C134.281 39.2975 132.255 34.3308 128.504 30.5815L104.684 6.86283Z" fill="white"/>
<path d="M73.568 90.7855C67.0827 90.7855 64.7507 88.2522 64.7507 81.8655C64.7507 75.4802 67.0827 72.5415 73.568 72.5415C80.056 72.5415 82.3881 75.4802 82.3881 81.8655C82.3881 88.2522 80.056 90.7855 73.568 90.7855ZM73.568 45.4788C79.144 45.4788 81.3747 47.5068 81.3747 54.2988C81.3747 60.8855 79.144 63.1175 73.568 63.1175C67.996 63.1175 65.7654 60.8855 65.7654 54.2988C65.7654 47.5068 67.996 45.4788 73.568 45.4788ZM85.528 67.2721C91.204 63.1175 91.3054 58.8601 91.3054 55.4135V51.9682C90.6974 40.5135 86.8467 36.1548 73.568 36.1548C60.292 36.1548 56.4414 40.5135 55.8321 51.9682V55.4135C55.8321 58.8601 55.9333 63.1175 61.6093 67.2721C54.8187 69.9068 54.312 75.6855 54.312 83.2855C54.312 94.5361 58.264 100.111 73.568 100.416C88.8733 100.111 92.828 94.5361 92.828 83.2855C92.828 75.6855 92.3214 69.9068 85.528 67.2721Z" fill="white"/>
</svg>
