<svg width="135" height="135" viewBox="0 0 135 135" fill="none" xmlns="http://www.w3.org/2000/svg">
<path d="M76.5693 75.176C76.5693 85.616 76.1653 89.9733 66.8387 89.9733C57.5147 89.9733 57.1093 85.716 57.1093 75.3787V61.3907C57.1093 50.952 57.5147 46.5946 66.8387 46.5946C76.1653 46.5946 76.5693 50.852 76.5693 61.1893V75.176ZM66.8387 35.9507C47.0747 35.9507 46.4667 45.4774 46.4667 71.3254C46.4667 91.4947 48.696 100.617 66.8387 100.617C85.8933 100.617 87.212 90.48 87.212 67.98C87.212 45.5813 85.8933 35.9507 66.8387 35.9507Z" fill="white"/>
<path d="M125.961 60.3787C125.961 61.8987 125.251 62.708 123.832 62.708H117.041V57.9453C117.041 54.4 116.535 52.5746 113.495 52.5746H110.453C107.413 52.5746 106.905 54.4 106.905 57.9453V62.708H102.143C98.5947 62.708 96.7707 63.216 96.7707 66.256V69.5C96.7707 72.54 98.5947 73.048 102.143 73.048H106.905V77.812C106.905 81.3587 107.413 83.184 110.453 83.184H113.495C116.535 83.184 117.041 81.3587 117.041 77.812V73.048H123.832C125.149 73.048 125.86 73.7573 125.961 75.0746V90.48C125.961 94.2307 124.845 97.0693 122.211 99.6013L99.608 122.204C96.9734 124.84 94.0333 126.057 90.3853 126.057H45.18C41.5307 126.057 38.5907 124.84 35.956 122.204L13.3547 99.6013C10.7187 96.9667 9.50268 94.2307 9.60401 90.48V45.7827C9.60401 42.032 10.82 38.7894 13.556 36.0534L36.564 12.7413C38.896 10.4106 41.8347 9.69997 45.18 9.69997H90.3853C93.7293 9.69997 96.668 10.4106 99 12.7413L122.007 36.0534C124.643 38.7894 125.961 42.032 125.961 45.7827V60.3787ZM105.183 6.8613C101.229 3.01064 96.2627 0.982658 90.284 0.982658H45.2813C39.3013 0.982658 34.2333 3.01064 30.3813 6.8613L6.56267 30.58C2.81333 34.3293 0.785339 39.296 0.785339 44.7693V90.48C0.785339 96.764 2.91467 101.631 7.17067 105.785L29.7747 128.388C34.2333 132.847 39.2 134.875 45.5853 134.775H89.98C96.1627 134.775 101.229 132.949 105.791 128.388L128.393 105.785C132.549 101.631 134.779 96.664 134.779 90.48V44.7693C134.779 39.296 132.752 34.3293 129.001 30.58L105.183 6.8613Z" fill="white"/>
</svg>
