<svg width="24" height="24" viewBox="0 0 24 24" fill="none" xmlns="http://www.w3.org/2000/svg">
<path d="M7.91644 1.3C7.73079 1.3 7.55274 1.37375 7.42147 1.50503L1.50503 7.42147C1.37375 7.55274 1.3 7.73079 1.3 7.91644V16.2836C1.3 16.4692 1.37375 16.6473 1.50503 16.7785L7.42147 22.695C7.55274 22.8263 7.73079 22.9 7.91644 22.9H16.2836C16.4692 22.9 16.6473 22.8263 16.7785 22.695L22.695 16.7785C22.8263 16.6473 22.9 16.4692 22.9 16.2836V7.91644C22.9 7.73079 22.8263 7.55274 22.695 7.42147L16.7785 1.50503C16.6473 1.37375 16.4692 1.3 16.2836 1.3L7.91644 1.3Z" fill="white" fill-opacity="0.2" stroke="white" stroke-width="1.4" stroke-linejoin="round"/>
<path d="M22.7829 12.9034H17.4069V11.6314H22.7829V12.9034ZM20.7309 14.9554H19.4589V9.57938H20.7309V14.9554Z" fill="white"/>
<path d="M11.4978 17.208C10.7524 17.208 10.1068 17.0173 9.56077 16.636C9.02343 16.2547 8.61177 15.7043 8.32577 14.985C8.03977 14.257 7.89677 13.3817 7.89677 12.359C7.89677 10.8163 8.2131 9.62033 8.84577 8.771C9.4871 7.92167 10.3711 7.497 11.4978 7.497C12.6158 7.497 13.4911 7.92167 14.1238 8.771C14.7651 9.62033 15.0858 10.8163 15.0858 12.359C15.0858 13.3817 14.9428 14.257 14.6568 14.985C14.3708 15.7043 13.9591 16.2547 13.4218 16.636C12.8931 17.0173 12.2518 17.208 11.4978 17.208ZM11.4978 15.986C12.1564 15.986 12.6678 15.6783 13.0318 15.063C13.3958 14.439 13.5778 13.5377 13.5778 12.359C13.5778 11.1717 13.3958 10.2703 13.0318 9.655C12.6678 9.031 12.1564 8.719 11.4978 8.719C10.8391 8.719 10.3278 9.031 9.96377 9.655C9.59977 10.2703 9.41777 11.1717 9.41777 12.359C9.41777 13.5377 9.59977 14.439 9.96377 15.063C10.3278 15.6783 10.8391 15.986 11.4978 15.986Z" fill="white"/>
</svg>
