<svg width="24" height="24" viewBox="0 0 24 24" fill="none" xmlns="http://www.w3.org/2000/svg">
<path d="M7.91644 1.3C7.73079 1.3 7.55274 1.37375 7.42147 1.50503L1.50503 7.42147C1.37375 7.55274 1.3 7.73079 1.3 7.91644V16.2836C1.3 16.4692 1.37375 16.6473 1.50503 16.7785L7.42147 22.695C7.55274 22.8263 7.73079 22.9 7.91644 22.9H16.2836C16.4692 22.9 16.6473 22.8263 16.7785 22.695L22.695 16.7785C22.8263 16.6473 22.9 16.4692 22.9 16.2836V7.91644C22.9 7.73079 22.8263 7.55274 22.695 7.42147L16.7785 1.50503C16.6473 1.37375 16.4692 1.3 16.2836 1.3L7.91644 1.3Z" fill="white" fill-opacity="0.2" stroke="white" stroke-width="1.4" stroke-linejoin="round"/>
<path d="M22.7829 12.9034H17.4069V11.6314H22.7829V12.9034ZM20.7309 14.9554H19.4589V9.57938H20.7309V14.9554Z" fill="white"/>
<path d="M6.42792 7.36839H7.72792V16.6634H6.24592V8.94139L3.89292 10.6314V9.11039L6.42792 7.36839ZM13.2215 16.8714C12.5369 16.8714 11.9259 16.7544 11.3885 16.5204C10.8512 16.2777 10.4309 15.9484 10.1275 15.5324C9.82421 15.1077 9.67254 14.6311 9.67254 14.1024C9.67254 13.5824 9.82854 13.1231 10.1405 12.7244C10.4525 12.3171 10.8729 12.0007 11.4015 11.7754C11.9389 11.5414 12.5455 11.4244 13.2215 11.4244C13.9149 11.4244 14.5259 11.5414 15.0545 11.7754C15.5919 12.0007 16.0122 12.3171 16.3155 12.7244C16.6189 13.1231 16.7705 13.5824 16.7705 14.1024C16.7705 14.6311 16.6189 15.1077 16.3155 15.5324C16.0122 15.9484 15.5962 16.2777 15.0675 16.5204C14.5389 16.7544 13.9235 16.8714 13.2215 16.8714ZM13.2215 12.0484C12.6149 12.0484 12.0689 11.9487 11.5835 11.7494C11.1069 11.5501 10.7299 11.2727 10.4525 10.9174C10.1752 10.5621 10.0365 10.1591 10.0365 9.70839C10.0365 9.22306 10.1709 8.78972 10.4395 8.40839C10.7169 8.01839 11.0939 7.71506 11.5705 7.49839C12.0472 7.27306 12.5975 7.16039 13.2215 7.16039C13.8542 7.16039 14.4089 7.27306 14.8855 7.49839C15.3622 7.71506 15.7349 8.01839 16.0035 8.40839C16.2809 8.78972 16.4195 9.22306 16.4195 9.70839C16.4195 10.1591 16.2809 10.5621 16.0035 10.9174C15.7262 11.2727 15.3492 11.5501 14.8725 11.7494C14.3959 11.9487 13.8455 12.0484 13.2215 12.0484ZM13.2215 15.6494C13.6115 15.6494 13.9582 15.5801 14.2615 15.4414C14.5735 15.3027 14.8162 15.1121 14.9895 14.8694C15.1715 14.6267 15.2625 14.3537 15.2625 14.0504C15.2625 13.7384 15.1715 13.4654 14.9895 13.2314C14.8162 12.9887 14.5735 12.7981 14.2615 12.6594C13.9582 12.5207 13.6115 12.4514 13.2215 12.4514C12.8402 12.4514 12.4935 12.5207 12.1815 12.6594C11.8782 12.7981 11.6355 12.9887 11.4535 13.2314C11.2802 13.4654 11.1935 13.7384 11.1935 14.0504C11.1935 14.3537 11.2802 14.6267 11.4535 14.8694C11.6355 15.1121 11.8782 15.3027 12.1815 15.4414C12.4935 15.5801 12.8402 15.6494 13.2215 15.6494ZM13.2215 11.2424C13.5509 11.2424 13.8412 11.1817 14.0925 11.0604C14.3525 10.9304 14.5562 10.7571 14.7035 10.5404C14.8595 10.3237 14.9375 10.0811 14.9375 9.81239C14.9375 9.53506 14.8595 9.28806 14.7035 9.07139C14.5562 8.85472 14.3525 8.68572 14.0925 8.56439C13.8412 8.43439 13.5509 8.36939 13.2215 8.36939C12.9095 8.36939 12.6192 8.43439 12.3505 8.56439C12.0905 8.68572 11.8869 8.85472 11.7395 9.07139C11.5922 9.28806 11.5185 9.53506 11.5185 9.81239C11.5185 10.0811 11.5922 10.3237 11.7395 10.5404C11.8869 10.7571 12.0905 10.9304 12.3505 11.0604C12.6192 11.1817 12.9095 11.2424 13.2215 11.2424Z" fill="white"/>
</svg>
