<svg width="24" height="24" viewBox="0 0 24 24" fill="none" xmlns="http://www.w3.org/2000/svg">
<path d="M7.91644 1.3C7.73079 1.3 7.55274 1.37375 7.42147 1.50503L1.50503 7.42147C1.37375 7.55274 1.3 7.73079 1.3 7.91644V16.2836C1.3 16.4692 1.37375 16.6473 1.50503 16.7785L7.42147 22.695C7.55274 22.8263 7.73079 22.9 7.91644 22.9H16.2836C16.4692 22.9 16.6473 22.8263 16.7785 22.695L22.695 16.7785C22.8263 16.6473 22.9 16.4692 22.9 16.2836V7.91644C22.9 7.73079 22.8263 7.55274 22.695 7.42147L16.7785 1.50503C16.6473 1.37375 16.4692 1.3 16.2836 1.3L7.91644 1.3Z" fill="black" fill-opacity="0.15" stroke="white" stroke-width="1.4" stroke-linejoin="round"/>
<path d="M22.7829 12.9034H17.4069V11.6314H22.7829V12.9034ZM20.7309 14.9554H19.4589V9.57938H20.7309V14.9554Z" fill="white"/>
<path d="M6.68183 7.36839H7.98183V16.6634H6.49983V8.94139L4.14683 10.6314V9.11039L6.68183 7.36839ZM16.3224 16.6634H9.96545V15.4544L13.3714 12.3474C13.8481 11.9054 14.2078 11.5024 14.4504 11.1384C14.6931 10.7657 14.8144 10.3844 14.8144 9.99439C14.8144 9.69972 14.7451 9.43106 14.6064 9.18839C14.4678 8.94572 14.2728 8.75506 14.0214 8.61639C13.7701 8.47772 13.4798 8.40839 13.1504 8.40839C12.6911 8.40839 12.2621 8.53839 11.8634 8.79839C11.4734 9.04972 11.1224 9.41806 10.8104 9.90339L9.83545 8.95439C10.2688 8.36506 10.7671 7.91872 11.3304 7.61539C11.8938 7.31206 12.5221 7.16039 13.2154 7.16039C13.8308 7.16039 14.3681 7.28606 14.8274 7.53739C15.2868 7.78006 15.6421 8.11806 15.8934 8.55139C16.1448 8.97606 16.2704 9.45706 16.2704 9.99439C16.2704 10.3931 16.1881 10.7787 16.0234 11.1514C15.8588 11.5154 15.6118 11.8881 15.2824 12.2694C14.9531 12.6507 14.5328 13.0667 14.0214 13.5174C13.8048 13.7167 13.5664 13.9291 13.3064 14.1544C13.0551 14.3797 12.8038 14.6051 12.5524 14.8304C12.3098 15.0471 12.0714 15.2551 11.8374 15.4544H16.3224V16.6634Z" fill="white"/>
</svg>
