<svg width="24" height="24" viewBox="0 0 24 24" fill="none" xmlns="http://www.w3.org/2000/svg">
<path d="M7.78154 1.23662C7.59589 1.23662 7.41784 1.31037 7.28657 1.44164L1.37012 7.35808C1.23885 7.48936 1.1651 7.66741 1.1651 7.85306V16.2202C1.1651 16.4058 1.23885 16.5839 1.37012 16.7151L7.28657 22.6316C7.41784 22.7629 7.59589 22.8366 7.78154 22.8366H16.1487C16.3343 22.8366 16.5124 22.7629 16.6436 22.6316L22.5601 16.7151C22.6913 16.5839 22.7651 16.4058 22.7651 16.2202V7.85306C22.7651 7.66741 22.6913 7.48936 22.5601 7.35808L16.6436 1.44164C16.5124 1.31036 16.3343 1.23662 16.1487 1.23662L7.78154 1.23662Z" fill="#FF0000" fill-opacity="0.2" stroke="white" stroke-width="1.4" stroke-linejoin="round"/>
<path d="M22.648 12.84H17.272V11.568H22.648V12.84ZM20.596 14.892H19.324V9.516H20.596V14.892Z" fill="white"/>
<path d="M5.79302 7.305H7.09302V16.6H5.61102V8.878L3.25802 10.568V9.047L5.79302 7.305ZM12.5866 16.808C11.902 16.808 11.291 16.691 10.7536 16.457C10.2163 16.2143 9.79597 15.885 9.49264 15.469C9.1893 15.0443 9.03764 14.5677 9.03764 14.039C9.03764 13.519 9.19364 13.0597 9.50564 12.661C9.81764 12.2537 10.238 11.9373 10.7666 11.712C11.304 11.478 11.9106 11.361 12.5866 11.361C13.28 11.361 13.891 11.478 14.4196 11.712C14.957 11.9373 15.3773 12.2537 15.6806 12.661C15.984 13.0597 16.1356 13.519 16.1356 14.039C16.1356 14.5677 15.984 15.0443 15.6806 15.469C15.3773 15.885 14.9613 16.2143 14.4326 16.457C13.904 16.691 13.2886 16.808 12.5866 16.808ZM12.5866 11.985C11.98 11.985 11.434 11.8853 10.9486 11.686C10.472 11.4867 10.095 11.2093 9.81764 10.854C9.5403 10.4987 9.40164 10.0957 9.40164 9.645C9.40164 9.15966 9.53597 8.72633 9.80464 8.345C10.082 7.955 10.459 7.65166 10.9356 7.435C11.4123 7.20966 11.9626 7.097 12.5866 7.097C13.2193 7.097 13.774 7.20966 14.2506 7.435C14.7273 7.65166 15.1 7.955 15.3686 8.345C15.646 8.72633 15.7846 9.15966 15.7846 9.645C15.7846 10.0957 15.646 10.4987 15.3686 10.854C15.0913 11.2093 14.7143 11.4867 14.2376 11.686C13.761 11.8853 13.2106 11.985 12.5866 11.985ZM12.5866 15.586C12.9766 15.586 13.3233 15.5167 13.6266 15.378C13.9386 15.2393 14.1813 15.0487 14.3546 14.806C14.5366 14.5633 14.6276 14.2903 14.6276 13.987C14.6276 13.675 14.5366 13.402 14.3546 13.168C14.1813 12.9253 13.9386 12.7347 13.6266 12.596C13.3233 12.4573 12.9766 12.388 12.5866 12.388C12.2053 12.388 11.8586 12.4573 11.5466 12.596C11.2433 12.7347 11.0006 12.9253 10.8186 13.168C10.6453 13.402 10.5586 13.675 10.5586 13.987C10.5586 14.2903 10.6453 14.5633 10.8186 14.806C11.0006 15.0487 11.2433 15.2393 11.5466 15.378C11.8586 15.5167 12.2053 15.586 12.5866 15.586ZM12.5866 11.179C12.916 11.179 13.2063 11.1183 13.4576 10.997C13.7176 10.867 13.9213 10.6937 14.0686 10.477C14.2246 10.2603 14.3026 10.0177 14.3026 9.749C14.3026 9.47166 14.2246 9.22466 14.0686 9.008C13.9213 8.79133 13.7176 8.62233 13.4576 8.501C13.2063 8.371 12.916 8.306 12.5866 8.306C12.2746 8.306 11.9843 8.371 11.7156 8.501C11.4556 8.62233 11.252 8.79133 11.1046 9.008C10.9573 9.22466 10.8836 9.47166 10.8836 9.749C10.8836 10.0177 10.9573 10.2603 11.1046 10.477C11.252 10.6937 11.4556 10.867 11.7156 10.997C11.9843 11.1183 12.2746 11.179 12.5866 11.179Z" fill="white"/>
</svg>