<svg width="24" height="24" viewBox="0 0 24 24" fill="none" xmlns="http://www.w3.org/2000/svg">
<path d="M7.91644 1.3C7.73079 1.3 7.55274 1.37375 7.42147 1.50503L1.50503 7.42147C1.37375 7.55274 1.3 7.73079 1.3 7.91644V16.2836C1.3 16.4692 1.37375 16.6473 1.50503 16.7785L7.42147 22.695C7.55274 22.8263 7.73079 22.9 7.91644 22.9H16.2836C16.4692 22.9 16.6473 22.8263 16.7785 22.695L22.695 16.7785C22.8263 16.6473 22.9 16.4692 22.9 16.2836V7.91644C22.9 7.73079 22.8263 7.55274 22.695 7.42147L16.7785 1.50503C16.6473 1.37375 16.4692 1.3 16.2836 1.3L7.91644 1.3Z" fill="black" fill-opacity="0.15" stroke="white" stroke-width="1.4" stroke-linejoin="round"/>
<path d="M22.7829 12.9034H17.4069V11.6314H22.7829V12.9034ZM20.7309 14.9554H19.4589V9.57938H20.7309V14.9554Z" fill="white"/>
<path d="M6.46601 7.36839H7.76601V16.6634H6.28401V8.94139L3.93101 10.6314V9.11039L6.46601 7.36839ZM13.2336 16.8714C12.5403 16.8714 11.9293 16.7197 11.4006 16.4164C10.872 16.1131 10.4603 15.6971 10.1656 15.1684C9.87096 14.6397 9.72363 14.0331 9.72363 13.3484C9.72363 12.6464 9.87096 11.9617 10.1656 11.2944C10.469 10.6184 10.9023 9.95539 11.4656 9.30539C12.029 8.65539 12.7093 8.00972 13.5066 7.36839H15.4826C14.668 8.00106 13.9876 8.57739 13.4416 9.09739C12.9043 9.61739 12.4753 10.1027 12.1546 10.5534C11.834 11.0041 11.5956 11.4461 11.4396 11.8794L11.2316 11.7884C11.4656 11.3984 11.782 11.0821 12.1806 10.8394C12.588 10.5967 13.0473 10.4754 13.5586 10.4754C14.1653 10.4754 14.7113 10.6097 15.1966 10.8784C15.682 11.1471 16.0676 11.5154 16.3536 11.9834C16.6396 12.4427 16.7826 12.9757 16.7826 13.5824C16.7826 14.2151 16.6266 14.7784 16.3146 15.2724C16.0113 15.7664 15.591 16.1564 15.0536 16.4424C14.525 16.7284 13.9183 16.8714 13.2336 16.8714ZM13.2466 15.6364C13.6453 15.6364 14.0006 15.5497 14.3126 15.3764C14.6246 15.1944 14.8673 14.9517 15.0406 14.6484C15.2226 14.3451 15.3136 14.0027 15.3136 13.6214C15.3136 13.2401 15.2226 12.9021 15.0406 12.6074C14.8673 12.3127 14.6246 12.0787 14.3126 11.9054C14.0006 11.7321 13.6453 11.6454 13.2466 11.6454C12.848 11.6454 12.4926 11.7321 12.1806 11.9054C11.8773 12.0787 11.6346 12.3127 11.4526 12.6074C11.2793 12.9021 11.1926 13.2401 11.1926 13.6214C11.1926 14.0027 11.2793 14.3451 11.4526 14.6484C11.6346 14.9517 11.8773 15.1944 12.1806 15.3764C12.4926 15.5497 12.848 15.6364 13.2466 15.6364Z" fill="white"/>
</svg>
