<svg width="135" height="135" viewBox="0 0 135 135" fill="none" xmlns="http://www.w3.org/2000/svg">
<path d="M74.0747 90.0707C66.8787 90.0707 64.7506 88.0426 64.7506 82.0626V72.432C67.284 71.8253 70.0214 71.2173 72.96 71.2173C80.7653 71.2173 82.488 73.2453 82.488 80.3387C82.488 86.8253 81.576 90.0707 74.0747 90.0707ZM74.2773 62.096C71.744 62.096 69.2107 62.2986 66.5747 62.8053C65.56 63.008 64.7506 62.6026 64.7506 61.3853V59.36C64.7506 49.8306 65.4587 46.3853 73.4667 46.3853C80.3587 46.3853 81.88 46.7906 81.88 51.7573C81.88 53.784 83.2987 54.3933 85.6307 54.3933H88.0613C90.9 54.3933 92.0146 53.6827 92.0146 50.9453C92.0146 38.9867 86.8467 35.9453 74.988 35.9453C56.44 35.9453 54.3107 43.4453 54.3107 67.1639C54.412 90.0706 53.0946 100.205 73.8733 100.205C87.0506 100.205 92.928 95.8467 92.928 79.1227C92.928 65.3387 86.5427 62.096 74.2773 62.096Z" fill="white"/>
<path d="M41.5626 37.06H32.3386C28.7919 37.06 26.9666 37.6693 26.9666 40.608V43.9533C26.9666 46.8907 28.7919 47.5 32.3386 47.5H34.4666C35.7839 47.5 36.3919 48.208 36.3919 50.2373V94.024C36.3919 97.5706 36.9999 99.3933 39.9412 99.3933H43.3865C46.3265 99.3933 46.9359 97.5706 46.9359 94.024V40.608C46.9359 37.6693 45.1106 37.06 41.5626 37.06Z" fill="white"/>
<path d="M126.052 60.1693C126.052 61.6907 125.341 62.5 123.923 62.5H117.132V57.7374C117.132 54.1907 116.624 52.364 113.584 52.364H110.544C107.503 52.364 106.996 54.1907 106.996 57.7374V62.5H102.232C98.6854 62.5 96.86 63.008 96.86 66.048V69.2921C96.86 72.3321 98.6854 72.8387 102.232 72.8387H106.996V77.6027C106.996 81.1507 107.503 82.9734 110.544 82.9734H113.584C116.624 82.9734 117.132 81.1507 117.132 77.6027V72.8387H123.923C125.24 72.8387 125.949 73.5493 126.052 74.8667V90.272C126.052 94.024 124.936 96.86 122.3 99.3934L99.6987 121.997C97.0627 124.633 94.1226 125.849 90.476 125.849H45.2693C41.62 125.849 38.6813 124.633 36.048 121.997L13.444 99.3934C10.8093 96.7574 9.59203 94.024 9.69336 90.272V45.5747C9.69336 41.824 10.9107 38.5813 13.6467 35.844L36.6547 12.5307C38.9867 10.2 41.9253 9.49206 45.2693 9.49206H90.476C93.8213 9.49206 96.7587 10.2 99.0907 12.5307L122.099 35.844C124.732 38.5813 126.052 41.824 126.052 45.5747V60.1693ZM105.272 6.65338C101.321 2.80272 96.3546 0.774674 90.3733 0.774674H45.3706C39.3906 0.774674 34.324 2.80272 30.472 6.65338L6.65202 30.3693C2.90402 34.1213 0.875977 39.0867 0.875977 44.5613V90.272C0.875977 96.556 3.00533 101.421 7.26133 105.579L29.8654 128.18C34.324 132.639 39.2893 134.667 45.6747 134.565H90.0706C96.2533 134.565 101.321 132.74 105.881 128.18L128.485 105.579C132.639 101.421 134.871 96.4547 134.871 90.272V44.5613C134.871 39.0867 132.841 34.1213 129.092 30.3693L105.272 6.65338Z" fill="white"/>
</svg>
