<svg width="135" height="135" viewBox="0 0 135 135" fill="none" xmlns="http://www.w3.org/2000/svg">
<path d="M43.3853 37.2708H34.1613C30.6146 37.2708 28.7893 37.8788 28.7893 40.8175V44.1614C28.7893 47.1014 30.6146 47.7081 34.1613 47.7081H36.2906C37.608 47.7081 38.216 48.4188 38.216 50.4455V94.2321C38.216 97.7801 38.824 99.6041 41.764 99.6041H45.2093C48.1493 99.6041 48.7573 97.7801 48.7573 94.2321V40.8175C48.7573 37.8788 46.932 37.2708 43.3853 37.2708Z" fill="white"/>
<path d="M125.957 60.3788C125.957 61.9002 125.248 62.7095 123.829 62.7095H117.039V57.9468C117.039 54.4001 116.531 52.5762 113.491 52.5762H110.449C107.409 52.5762 106.901 54.4001 106.901 57.9468V62.7095H102.139C98.592 62.7095 96.7666 63.2175 96.7666 66.2575V69.5015C96.7666 72.5415 98.592 73.0495 102.139 73.0495H106.901V77.8122C106.901 81.3602 107.409 83.1841 110.449 83.1841H113.491C116.531 83.1841 117.039 81.3602 117.039 77.8122V73.0495H123.829C125.147 73.0495 125.856 73.7588 125.957 75.0762V90.4815C125.957 94.2321 124.841 97.0695 122.207 99.6042L99.6053 122.205C96.9693 124.841 94.0293 126.059 90.3826 126.059H45.176C41.528 126.059 38.588 124.841 35.9533 122.205L13.3506 99.6042C10.716 96.9695 9.49864 94.2321 9.59997 90.4815V45.7842C9.59997 42.0335 10.8173 38.7895 13.5533 36.0535L36.5613 12.7415C38.892 10.4121 41.832 9.70013 45.176 9.70013H90.3826C93.7266 9.70013 96.6653 10.4121 98.9973 12.7415L122.004 36.0535C124.639 38.7895 125.957 42.0335 125.957 45.7842V60.3788ZM105.177 6.86283C101.227 3.01216 96.2613 0.98418 90.2786 0.98418H45.2773C39.2973 0.98418 34.2293 3.01216 30.3786 6.86283L6.55863 30.5815C2.8093 34.3308 0.782654 39.2975 0.782654 44.7708V90.4815C0.782654 96.7655 2.91197 101.632 7.16664 105.788L29.7706 128.389C34.2293 132.849 39.196 134.876 45.5827 134.775H89.9773C96.16 134.775 101.227 132.949 105.787 128.389L128.391 105.788C132.545 101.632 134.777 96.6641 134.777 90.4815V44.7708C134.777 39.2975 132.748 34.3308 128.999 30.5815L105.177 6.86283Z" fill="white"/>
<path d="M92.2013 56.3201C92.2013 42.4335 90.884 35.8467 73.856 35.8467C61.9973 35.8467 56.8294 38.5841 56.8294 50.8468C56.8294 53.5841 57.944 54.2947 60.7813 54.2947H63.2147C65.5453 54.2947 66.964 53.8881 66.964 51.8601C66.964 46.7934 68.8893 46.2868 73.856 46.2868C79.0267 46.2868 81.5587 46.7935 81.5587 53.9895C81.5587 65.0375 73.4507 65.3414 65.9507 68.4828C57.336 72.1321 56.0173 78.7201 56.0173 88.2481V94.3294C56.0173 98.7894 57.944 99.4974 61.6934 99.4974H86.324C90.0734 99.4974 92 98.8894 92 95.5468V92.5054C92 89.3628 90.0734 88.7534 86.324 88.7534H68.384C66.964 88.7534 66.5574 88.0441 66.5574 86.4228V83.0788C66.5574 72.2334 92.2013 79.0255 92.2013 56.3201Z" fill="white"/>
</svg>
