<svg width="24" height="24" viewBox="0 0 24 24" fill="none" xmlns="http://www.w3.org/2000/svg">
<path d="M7.91644 1.3C7.73079 1.3 7.55274 1.37375 7.42147 1.50503L1.50503 7.42147C1.37375 7.55274 1.3 7.73079 1.3 7.91644V16.2836C1.3 16.4692 1.37375 16.6473 1.50503 16.7785L7.42147 22.695C7.55274 22.8263 7.73079 22.9 7.91644 22.9H16.2836C16.4692 22.9 16.6473 22.8263 16.7785 22.695L22.695 16.7785C22.8263 16.6473 22.9 16.4692 22.9 16.2836V7.91644C22.9 7.73079 22.8263 7.55274 22.695 7.42147L16.7785 1.50503C16.6473 1.37375 16.4692 1.3 16.2836 1.3L7.91644 1.3Z" fill="black" fill-opacity="0.15" stroke="white" stroke-width="1.4" stroke-linejoin="round"/>
<path d="M22.7829 12.9034H17.4069V11.6314H22.7829V12.9034ZM20.7309 14.9554H19.4589V9.57938H20.7309V14.9554Z" fill="white"/>
<path d="M11.5074 17.208C10.8141 17.208 10.2031 17.0563 9.67441 16.753C9.14575 16.4497 8.73408 16.0337 8.43941 15.505C8.14475 14.9763 7.99741 14.3697 7.99741 13.685C7.99741 12.983 8.14475 12.2983 8.43941 11.631C8.74275 10.955 9.17608 10.292 9.73941 9.642C10.3027 8.992 10.9831 8.34633 11.7804 7.705H13.7564C12.9417 8.33767 12.2614 8.914 11.7154 9.434C11.1781 9.954 10.7491 10.4393 10.4284 10.89C10.1077 11.3407 9.86941 11.7827 9.71341 12.216L9.50541 12.125C9.73941 11.735 10.0557 11.4187 10.4544 11.176C10.8617 10.9333 11.3211 10.812 11.8324 10.812C12.4391 10.812 12.9851 10.9463 13.4704 11.215C13.9557 11.4837 14.3414 11.852 14.6274 12.32C14.9134 12.7793 15.0564 13.3123 15.0564 13.919C15.0564 14.5517 14.9004 15.115 14.5884 15.609C14.2851 16.103 13.8647 16.493 13.3274 16.779C12.7987 17.065 12.1921 17.208 11.5074 17.208ZM11.5204 15.973C11.9191 15.973 12.2744 15.8863 12.5864 15.713C12.8984 15.531 13.1411 15.2883 13.3144 14.985C13.4964 14.6817 13.5874 14.3393 13.5874 13.958C13.5874 13.5767 13.4964 13.2387 13.3144 12.944C13.1411 12.6493 12.8984 12.4153 12.5864 12.242C12.2744 12.0687 11.9191 11.982 11.5204 11.982C11.1217 11.982 10.7664 12.0687 10.4544 12.242C10.1511 12.4153 9.90841 12.6493 9.72641 12.944C9.55308 13.2387 9.46641 13.5767 9.46641 13.958C9.46641 14.3393 9.55308 14.6817 9.72641 14.985C9.90841 15.2883 10.1511 15.531 10.4544 15.713C10.7664 15.8863 11.1217 15.973 11.5204 15.973Z" fill="white"/>
</svg>
